<?xml version="1.0" encoding="utf-8"?>
<!-- Generator: Adobe Illustrator 19.2.1, SVG Export Plug-In . SVG Version: 6.00 Build 0)  -->
<svg version="1.1" id="Layer_1" xmlns="http://www.w3.org/2000/svg" xmlns:xlink="http://www.w3.org/1999/xlink" x="0px" y="0px"
	 viewBox="0 0 483.1 380.6" style="enable-background:new 0 0 483.1 380.6;" xml:space="preserve">
<style type="text/css">
	.st0{fill:#BA7072;}
	.st1{fill:#F6979A;}
	.st2{fill:none;stroke:#F6979A;stroke-width:4.6591;stroke-linecap:round;stroke-linejoin:round;stroke-miterlimit:10;}
</style>
<g>
	<path class="st0" d="M334.3,273.4c0,0,16.5,70.7,27.3,75.6h8.9c0,0-1.8-73.8-0.9-78.7L334.3,273.4z"/>
	<path class="st0" d="M152.7,273.7c0,0,17.6,64.3,40.4,75.7h8.4l2.4-67.9L152.7,273.7z"/>
	<path class="st1" d="M65.2,85.5c0,0,60.4-79.9,197.9-56.5c0,0,115,27.3,130.6,113.1c0,0,16,19.8,14.7,36.2s20.8,23.9,29.7,23.9
		c8.9,0-3.5,44.7-3.5,44.7s-38.1,32.8-124.8,32.3c0,0-5.8,40.7-1.3,69h-19.9c0,0-21.7-27.9-29.2-65.9c0,0-63.5,13.6-132.3-11.5
		c0,0-27.5,30.8-25.9,79.3H78.4C78.4,350.1,2.7,185.2,65.2,85.5z"/>
	<path class="st1" d="M366.3,131.8c0,0,11.3-31.9,33.6-32.7c22.3-0.8,23.7-20.9,23.7-20.9s18.6,42.6-33.3,54.5"/>
	<path class="st2" d="M46.1,57.9c0,0,25.1,9.3,31.6-7c6.5-16.3-21-16.8-22.3-5.8c-1.3,10.7,5.7,17.4,26.2,34.6"/>
	<circle cx="383" cy="197.5" r="9"/>
</g>
</svg>
